<?xml version="1.0" standalone="no"?>
<!DOCTYPE svg PUBLIC "-//W3C//DTD SVG 20010904//EN"
 "http://www.w3.org/TR/2001/REC-SVG-20010904/DTD/svg10.dtd">
<svg version="1.0" xmlns="http://www.w3.org/2000/svg"
 width="225.000000pt" height="225.000000pt" viewBox="0 0 225.000000 225.000000"
 preserveAspectRatio="xMidYMid meet">
<metadata>
Created by potrace 1.16, written by Peter Selinger 2001-2019
</metadata>
<g transform="translate(0.000000,225.000000) scale(0.100000,-0.100000)"
fill="#000000" stroke="none">
<path d="M70 2232 c-74 -37 -70 33 -70 -1107 0 -951 1 -1022 18 -1055 35 -71
22 -70 635 -70 l547 0 0 435 0 435 -145 0 -145 0 0 170 0 170 144 0 144 0 4
188 c4 165 7 194 28 247 53 138 137 215 275 251 52 14 315 19 374 8 l31 -6 0
-154 0 -154 -120 0 c-211 0 -227 -17 -237 -235 l-6 -145 173 0 173 0 -6 -37
c-3 -21 -13 -98 -23 -170 l-17 -133 -148 0 -149 0 0 -435 0 -435 298 0 c334 0
351 3 384 70 17 33 18 104 18 1055 0 951 -1 1022 -18 1055 -37 74 33 70 -1107
70 -951 0 -1022 -1 -1055 -18z"/>
</g>
</svg>
