<?xml version="1.0" standalone="no"?>
<!DOCTYPE svg PUBLIC "-//W3C//DTD SVG 20010904//EN"
 "http://www.w3.org/TR/2001/REC-SVG-20010904/DTD/svg10.dtd">
<svg version="1.0" xmlns="http://www.w3.org/2000/svg"
 width="225.000000pt" height="224.000000pt" viewBox="0 0 225.000000 224.000000"
 preserveAspectRatio="xMidYMid meet">
<metadata>
Created by potrace 1.16, written by Peter Selinger 2001-2019
</metadata>
<g transform="translate(0.000000,224.000000) scale(0.100000,-0.100000)"
fill="#000000" stroke="none">
<path d="M502 2229 c-224 -33 -418 -207 -479 -430 -16 -56 -18 -105 -15 -409
2 -292 5 -346 17 -353 8 -4 15 -15 15 -23 0 -8 5 -12 10 -9 6 4 10 -6 11 -22
l1 -28 8 25 c4 14 8 19 9 11 1 -14 58 -71 72 -71 4 0 10 -11 13 -25 4 -14 10
-23 15 -21 5 3 15 -9 22 -27 l14 -32 7 40 c4 22 7 196 7 386 1 371 4 396 57
501 41 81 136 173 224 217 118 59 172 63 686 58 480 -4 473 -3 594 -68 114
-61 218 -195 249 -321 12 -53 18 -955 6 -1023 -4 -22 -24 -76 -46 -121 -29
-63 -53 -95 -104 -142 -125 -117 -202 -142 -439 -142 -323 0 -576 -12 -576
-27 0 -7 6 -13 13 -13 7 0 20 -8 28 -17 9 -10 26 -25 38 -33 12 -8 19 -20 17
-27 -3 -7 4 -15 15 -18 10 -4 17 -11 14 -16 -4 -5 3 -9 14 -9 14 0 19 -5 15
-15 -5 -13 39 -15 359 -15 362 0 367 0 445 25 99 31 181 84 254 164 62 67 119
173 136 256 16 72 25 1156 12 1263 -13 101 -38 170 -89 248 -77 119 -190 204
-331 250 -50 17 -107 18 -655 20 -330 1 -628 -2 -663 -7z"/>
<path d="M639 1867 c-106 -30 -209 -122 -251 -225 -23 -56 -23 -64 -26 -505
-2 -311 0 -447 8 -442 5 3 10 -2 11 -12 0 -16 1 -16 9 2 8 19 9 19 9 -3 1 -16
39 -61 121 -143 65 -65 124 -119 130 -119 17 0 11 -18 -7 -23 -11 -3 -6 -5 12
-7 17 -1 24 -4 16 -7 -9 -4 -2 -11 20 -20 27 -11 31 -16 19 -24 -10 -6 151 -8
455 -7 l470 3 67 33 c82 40 157 119 190 200 23 57 23 58 23 542 l0 485 -27 57
c-37 80 -107 152 -187 191 l-66 32 -475 2 c-356 2 -486 -1 -521 -10z m1062
-206 c48 -48 36 -111 -27 -137 -93 -39 -165 84 -87 146 37 29 79 26 114 -9z
m-459 -142 c224 -47 378 -236 378 -464 0 -144 -50 -257 -156 -354 -98 -90
-202 -126 -347 -119 -81 3 -102 8 -167 39 -131 63 -216 157 -260 290 -29 84
-24 225 9 311 84 216 318 344 543 297z"/>
<path d="M1038 1377 c-102 -38 -167 -99 -210 -194 -34 -74 -31 -188 6 -271 73
-159 245 -235 417 -183 63 20 80 30 133 84 77 78 101 139 100 247 -1 129 -69
236 -186 296 -43 22 -70 28 -138 31 -55 2 -98 -2 -122 -10z"/>
</g>
</svg>
