<?xml version="1.0" standalone="no"?>
<!DOCTYPE svg PUBLIC "-//W3C//DTD SVG 20010904//EN"
 "http://www.w3.org/TR/2001/REC-SVG-20010904/DTD/svg10.dtd">
<svg version="1.0" xmlns="http://www.w3.org/2000/svg"
 width="281.000000pt" height="179.000000pt" viewBox="0 0 281.000000 179.000000"
 preserveAspectRatio="xMidYMid meet">
<metadata>
Created by potrace 1.16, written by Peter Selinger 2001-2019
</metadata>
<g transform="translate(0.000000,179.000000) scale(0.100000,-0.100000)"
fill="#000000" stroke="none">
<path d="M984 1695 c-196 -42 -352 -208 -384 -405 -5 -36 -9 -166 -8 -290 1
-124 4 -174 5 -112 4 122 2 119 66 101 l37 -10 2 -112 c1 -62 5 12 8 163 5
272 5 276 32 332 37 80 107 152 187 191 l66 32 410 0 410 0 66 -32 c80 -39
150 -111 187 -191 l27 -57 0 -410 0 -410 -32 -66 c-39 -80 -111 -150 -191
-187 -57 -27 -57 -27 -362 -32 -168 -3 -254 -7 -192 -8 121 -2 117 0 125 -64
5 -32 3 -37 -16 -41 -49 -9 313 -6 373 3 200 32 363 189 406 389 20 94 20 738
0 832 -41 193 -192 344 -385 385 -91 19 -748 19 -837 -1z"/>
<path d="M1824 1450 c-66 -27 -85 -120 -35 -171 56 -55 159 -26 176 50 10 45
-18 99 -59 116 -40 17 -52 17 -82 5z"/>
<path d="M1283 1286 c-105 -34 -204 -123 -251 -224 -22 -47 -27 -74 -29 -157
-2 -55 0 -92 5 -83 6 15 20 7 91 -52 46 -39 86 -70 88 -70 2 0 -7 15 -21 33
-39 50 -60 146 -47 208 23 104 78 175 170 217 235 108 487 -144 379 -379 -42
-92 -113 -147 -217 -170 -62 -13 -158 8 -208 47 -25 19 -33 21 -33 10 0 -8 5
-18 10 -21 10 -6 90 -120 90 -129 0 -2 -8 -7 -17 -10 -15 -4 -14 -5 2 -4 11 1
28 -2 38 -7 10 -4 55 -5 101 -3 69 4 96 10 148 36 79 39 159 120 196 199 24
52 27 69 27 168 0 99 -3 116 -27 168 -37 79 -117 160 -196 199 -58 29 -77 33
-161 35 -61 2 -111 -2 -138 -11z"/>
</g>
</svg>
