<?xml version="1.0" standalone="no"?>
<!DOCTYPE svg PUBLIC "-//W3C//DTD SVG 20010904//EN"
 "http://www.w3.org/TR/2001/REC-SVG-20010904/DTD/svg10.dtd">
<svg version="1.0" xmlns="http://www.w3.org/2000/svg"
 width="1200.000000pt" height="630.000000pt" viewBox="0 0 1200.000000 630.000000"
 preserveAspectRatio="xMidYMid meet">
<metadata>
Created by potrace 1.16, written by Peter Selinger 2001-2019
</metadata>
<g transform="translate(0.000000,630.000000) scale(0.100000,-0.100000)"
fill="#000000" stroke="none">
<path d="M3445 6190 c-210 -43 -394 -208 -467 -419 l-23 -66 0 -2555 0 -2555
23 -66 c63 -184 202 -325 390 -398 l67 -26 2565 0 2565 0 67 26 c188 73 327
214 390 398 l23 66 0 2555 0 2555 -23 66 c-63 184 -202 325 -390 398 l-67 26
-2540 1 c-1397 1 -2558 -2 -2580 -6z m3600 -1425 c49 -9 119 -29 156 -44 83
-35 188 -108 230 -161 28 -35 34 -38 68 -33 66 10 194 54 335 115 76 32 140
57 143 54 8 -8 -63 -161 -98 -212 -18 -27 -76 -91 -129 -143 -52 -51 -86 -91
-75 -88 11 4 64 16 117 27 97 21 216 58 257 79 27 15 27 1 1 -58 -35 -76 -137
-187 -273 -296 l-37 -30 -10 -140 c-57 -846 -417 -1518 -1031 -1922 -326 -214
-704 -338 -1143 -374 -312 -25 -590 12 -881 116 -96 34 -378 169 -458 218
l-39 23 139 -4 c280 -8 596 68 833 200 65 36 200 130 200 139 0 3 -25 9 -55
13 -122 14 -280 71 -371 133 -108 73 -243 233 -284 337 -5 12 -16 38 -25 60
l-16 38 60 -7 c66 -8 251 3 251 15 0 4 -19 13 -42 20 -118 35 -276 137 -367
237 -65 71 -148 225 -171 318 -18 73 -38 235 -29 235 4 0 23 -9 42 -20 41 -24
176 -60 228 -60 l38 0 -77 78 c-119 120 -193 279 -228 488 -27 163 -3 368 56
484 l21 41 142 -137 c452 -434 886 -642 1481 -709 58 -7 59 -7 52 17 -4 12
-10 78 -13 144 -7 146 11 243 64 348 169 335 559 527 938 461z"/>
</g>
</svg>
